<?xml version="1.0" encoding="UTF-8"?>
<ffprobe>
    <streams>
        <stream index="0" codec_name="mpeg4" codec_long_name="MPEG-4 part 2" profile="Simple Profile" codec_type="video" codec_time_base="1/25" codec_tag_string="mp4v" codec_tag="0x7634706d" width="720" height="404" has_b_frames="0" sample_aspect_ratio="254:255" display_aspect_ratio="3048:1717" pix_fmt="yuv420p" level="1" chroma_location="left" refs="1" quarter_sample="0" divx_packed="0" r_frame_rate="25/1" avg_frame_rate="25/1" time_base="1/12800" start_pts="-102127" start_time="-7.978672" duration_ts="166400" duration="13.000000" bit_rate="2134838" nb_frames="325">
            <disposition default="1" dub="0" original="0" comment="0" lyrics="0" karaoke="0" forced="0" hearing_impaired="0" visual_impaired="0" clean_effects="0" attached_pic="0"/>
            <tag key="language" value="deu"/>
            <tag key="handler_name" value="VideoHandler"/>
        </stream>
        <stream index="1" codec_name="aac" codec_long_name="AAC (Advanced Audio Coding)" profile="LC" codec_type="audio" codec_time_base="1/48000" codec_tag_string="mp4a" codec_tag="0x6134706d" sample_fmt="fltp" sample_rate="48000" channels="2" channel_layout="stereo" bits_per_sample="0" r_frame_rate="0/0" avg_frame_rate="0/0" time_base="1/48000" start_pts="-383488" start_time="-7.989333" duration_ts="623616" duration="12.992000" bit_rate="128235" nb_frames="609">
            <disposition default="1" dub="0" original="0" comment="0" lyrics="0" karaoke="0" forced="0" hearing_impaired="0" visual_impaired="0" clean_effects="0" attached_pic="0"/>
            <tag key="language" value="deu"/>
            <tag key="handler_name" value="SoundHandler"/>
        </stream>
        <stream index="2" codec_name="aac" codec_long_name="AAC (Advanced Audio Coding)" profile="LC" codec_type="audio" codec_time_base="1/48000" codec_tag_string="mp4a" codec_tag="0x6134706d" sample_fmt="fltp" sample_rate="48000" channels="2" channel_layout="stereo" bits_per_sample="0" r_frame_rate="0/0" avg_frame_rate="0/0" time_base="1/48000" start_pts="-383488" start_time="-7.989333" duration_ts="623616" duration="12.992000" bit_rate="128103" nb_frames="609">
            <disposition default="0" dub="0" original="0" comment="0" lyrics="0" karaoke="0" forced="0" hearing_impaired="0" visual_impaired="0" clean_effects="0" attached_pic="0"/>
            <tag key="language" value="eng"/>
            <tag key="handler_name" value="SoundHandler"/>
        </stream>
        <stream index="3" codec_name="mov_text" codec_long_name="3GPP Timed Text subtitle" codec_type="subtitle" codec_time_base="1/1000" codec_tag_string="tx3g" codec_tag="0x67337874" r_frame_rate="0/0" avg_frame_rate="0/0" time_base="1/1000" start_pts="-42899" start_time="-42.899000" duration_ts="182219" duration="182.219000" nb_frames="2">
            <disposition default="1" dub="0" original="0" comment="0" lyrics="0" karaoke="0" forced="0" hearing_impaired="0" visual_impaired="0" clean_effects="0" attached_pic="0"/>
            <tag key="language" value="eng"/>
            <tag key="handler_name" value="SubtitleHandler"/>
        </stream>
        <stream index="4" codec_name="mov_text" codec_long_name="3GPP Timed Text subtitle" codec_type="subtitle" codec_time_base="1/1000" codec_tag_string="text" codec_tag="0x74786574" r_frame_rate="0/0" avg_frame_rate="0/0" time_base="1/1000" start_pts="-7989" start_time="-7.989000" duration_ts="182219" duration="182.219000" bit_rate="38" nb_frames="1">
            <disposition default="0" dub="0" original="0" comment="0" lyrics="0" karaoke="0" forced="0" hearing_impaired="0" visual_impaired="0" clean_effects="0" attached_pic="0"/>
            <tag key="language" value="eng"/>
            <tag key="handler_name" value="SubtitleHandler"/>
        </stream>
    </streams>

    <format filename="test3.mp4" nb_streams="5" nb_programs="0" format_name="mov,mp4,m4a,3gp,3g2,mj2" format_long_name="QuickTime / MOV" start_time="-7.989333" duration="182.219000" size="3900739" bit_rate="171254" probe_score="100">
        <tag key="major_brand" value="isom"/>
        <tag key="minor_version" value="512"/>
        <tag key="compatible_brands" value="isomiso2mp41"/>
        <tag key="encoder" value="Lavf56.25.101"/>
    </format>
</ffprobe>
